# Blender v3.2.2 OBJ File: 'cube.blend'
# www.blender.org
mtllib cube.mtl
o Cube
v 0.920000 0.920000 -1.000000
v 0.920000 1.000000 -0.920000
v 1.000000 0.920000 -0.920000
v 0.920000 0.968671 -0.968671
v 0.956393 0.956393 -0.956393
v 0.968671 0.968671 -0.920000
v 0.968671 0.920000 -0.968671
v 0.920000 -1.000000 -0.920000
v 0.920000 -0.920000 -1.000000
v 1.000000 -0.920000 -0.920000
v 0.920000 -0.968671 -0.968671
v 0.956393 -0.956393 -0.956393
v 0.968671 -0.920000 -0.968671
v 0.968671 -0.968671 -0.920000
v 1.000000 0.920000 0.920000
v 0.920000 1.000000 0.920000
v 0.920000 0.920000 1.000000
v 0.968671 0.968671 0.920000
v 0.956393 0.956393 0.956393
v 0.920000 0.968671 0.968671
v 0.968671 0.920000 0.968671
v 1.000000 -0.920000 0.920000
v 0.920000 -0.920000 1.000000
v 0.920000 -1.000000 0.920000
v 0.968671 -0.920000 0.968671
v 0.956393 -0.956393 0.956393
v 0.920000 -0.968671 0.968671
v 0.968671 -0.968671 0.920000
v -0.920000 0.920000 -1.000000
v -1.000000 0.920000 -0.920000
v -0.920000 1.000000 -0.920000
v -0.968671 0.920000 -0.968671
v -0.956393 0.956393 -0.956393
v -0.968671 0.968671 -0.920000
v -0.920000 0.968671 -0.968671
v -1.000000 -0.920000 -0.920000
v -0.920000 -0.920000 -1.000000
v -0.920000 -1.000000 -0.920000
v -0.968671 -0.920000 -0.968671
v -0.956393 -0.956393 -0.956393
v -0.920000 -0.968671 -0.968671
v -0.968671 -0.968671 -0.920000
v -1.000000 0.920000 0.920000
v -0.920000 0.920000 1.000000
v -0.920000 1.000000 0.920000
v -0.968671 0.920000 0.968671
v -0.956393 0.956393 0.956393
v -0.920000 0.968671 0.968671
v -0.968671 0.968671 0.920000
v -0.920000 -1.000000 0.920000
v -0.920000 -0.920000 1.000000
v -1.000000 -0.920000 0.920000
v -0.920000 -0.968671 0.968671
v -0.956393 -0.956393 0.956393
v -0.968671 -0.920000 0.968671
v -0.968671 -0.968671 0.920000
vt 0.135000 0.510000
vt 0.365000 0.510000
vt 0.365000 0.740000
vt 0.135000 0.740000
vt 0.385000 0.010000
vt 0.615000 0.010000
vt 0.615000 0.240000
vt 0.385000 0.240000
vt 0.385000 0.760000
vt 0.615000 0.760000
vt 0.615000 0.990000
vt 0.385000 0.990000
vt 0.635000 0.510000
vt 0.865000 0.510000
vt 0.865000 0.740000
vt 0.635000 0.740000
vt 0.385000 0.510000
vt 0.615000 0.510000
vt 0.615000 0.740000
vt 0.385000 0.740000
vt 0.615000 0.490000
vt 0.625000 0.490000
vt 0.623183 0.500000
vt 0.615000 0.500000
vt 0.625000 0.510000
vt 0.635000 0.500000
vt 0.365000 0.500000
vt 0.375000 0.501817
vt 0.375000 0.510000
vt 0.385000 0.490000
vt 0.385000 0.500000
vt 0.375000 0.490000
vt 0.625000 0.740000
vt 0.625000 0.748183
vt 0.615000 0.750000
vt 0.635000 0.750000
vt 0.625000 0.760000
vt 0.385000 0.750000
vt 0.376817 0.750000
vt 0.375000 0.740000
vt 0.375000 0.760000
vt 0.365000 0.750000
vt 0.615000 0.260000
vt 0.615000 0.250000
vt 0.619549 0.250000
vt 0.625000 0.260000
vt 0.625000 0.240000
vt 0.625000 0.244549
vt 0.865000 0.500000
vt 0.869549 0.500000
vt 0.875000 0.510000
vt 0.385000 0.250000
vt 0.380451 0.250000
vt 0.375000 0.240000
vt 0.385000 0.260000
vt 0.375000 0.260000
vt 0.375000 0.255451
vt 0.125000 0.510000
vt 0.125000 0.505451
vt 0.135000 0.500000
vt 0.615000 0.000000
vt 0.619549 0.000000
vt 0.625000 0.010000
vt 0.625000 0.990000
vt 0.625000 0.994549
vt 0.615000 1.000000
vt 0.875000 0.740000
vt 0.875000 0.744549
vt 0.865000 0.750000
vt 0.135000 0.750000
vt 0.130451 0.750000
vt 0.125000 0.740000
vt 0.385000 1.000000
vt 0.380451 1.000000
vt 0.375000 0.990000
vt 0.375000 0.010000
vt 0.375000 0.005451
vt 0.385000 0.000000
vn 0.0000 -1.0000 0.0000
vn -1.0000 0.0000 0.0000
vn 0.0000 0.0000 1.0000
vn 0.0000 1.0000 0.0000
vn 1.0000 0.0000 0.0000
vn -0.0000 0.0000 -1.0000
vn 0.0000 0.7071 -0.7071
vn 0.5774 0.5773 -0.5774
vn 0.7071 0.0000 -0.7071
vn 0.7071 0.7071 -0.0000
vn 0.5773 0.5774 -0.5774
vn 0.5774 0.5774 -0.5773
vn 0.0000 -0.7071 -0.7071
vn 0.5774 -0.5774 -0.5773
vn 0.7071 -0.7071 -0.0000
vn 0.5773 -0.5774 -0.5774
vn 0.5774 -0.5773 -0.5774
vn 0.5774 0.5773 0.5774
vn 0.7071 0.0000 0.7071
vn 0.0000 0.7071 0.7071
vn 0.5774 0.5774 0.5773
vn 0.5773 0.5774 0.5774
vn 0.5774 -0.5774 0.5773
vn 0.0000 -0.7071 0.7071
vn 0.5774 -0.5773 0.5774
vn 0.5773 -0.5774 0.5774
vn -0.7071 0.0000 -0.7071
vn -0.5773 0.5774 -0.5774
vn -0.7071 0.7071 -0.0000
vn -0.5774 0.5773 -0.5774
vn -0.5774 0.5774 -0.5773
vn -0.5774 -0.5774 -0.5773
vn -0.7071 -0.7071 -0.0000
vn -0.5774 -0.5773 -0.5774
vn -0.5773 -0.5774 -0.5774
vn -0.7071 0.0000 0.7071
vn -0.5774 0.5774 0.5773
vn -0.5774 0.5773 0.5774
vn -0.5773 0.5774 0.5774
vn -0.5774 -0.5774 0.5773
vn -0.5773 -0.5774 0.5774
vn -0.5774 -0.5773 0.5774
vn 0.0000 -1.0000 0.0003
vn -0.7071 -0.7071 0.0001
vn -0.7071 -0.7071 -0.0001
vn -1.0000 0.0000 -0.0003
vn -0.0003 -1.0000 0.0000
vn -0.0001 -0.7071 -0.7071
vn 0.0001 -0.7071 -0.7071
vn 0.0003 0.0000 -1.0000
vn 1.0000 -0.0003 0.0000
vn 0.7071 -0.0001 -0.7071
vn 0.7071 0.0001 -0.7071
vn -0.0000 0.0003 -1.0000
vn 0.0000 0.0003 1.0000
vn -0.7071 0.0001 0.7071
vn -0.7071 -0.0001 0.7071
vn -1.0000 -0.0003 -0.0000
vn -0.0000 -0.0003 1.0000
vn 0.7071 -0.0001 0.7071
vn 0.7071 0.0001 0.7071
vn 1.0000 0.0003 -0.0000
vn 0.0000 -0.0003 -1.0000
vn -0.7071 -0.0001 -0.7071
vn -0.7071 0.0001 -0.7071
vn -1.0000 0.0003 0.0000
vn -0.0003 1.0000 -0.0000
vn -0.0001 0.7071 0.7071
vn 0.0001 0.7071 0.7071
vn 0.0003 -0.0000 1.0000
vn -0.0000 1.0000 0.0003
vn 0.7071 0.7071 0.0001
vn 0.7071 0.7071 -0.0001
vn 1.0000 -0.0000 -0.0003
vn 0.0003 -1.0000 -0.0000
vn 0.0001 -0.7071 0.7071
vn -0.0001 -0.7071 0.7071
vn -0.0003 0.0000 1.0000
vn 0.0000 1.0000 -0.0003
vn -0.7071 0.7071 -0.0001
vn -0.7071 0.7071 0.0001
vn -1.0000 -0.0000 0.0003
vn 0.0003 1.0000 0.0000
vn 0.0001 0.7071 -0.7071
vn -0.0001 0.7071 -0.7071
vn -0.0003 -0.0000 -1.0000
vn -0.0000 -1.0000 -0.0003
vn 0.7071 -0.7071 -0.0001
vn 0.7071 -0.7071 0.0001
vn 1.0000 0.0000 0.0003
usemtl Material
s off
f 38/1/1 8/2/1 24/3/1 50/4/1
f 52/5/2 43/6/2 30/7/2 36/8/2
f 23/9/3 17/10/3 44/11/3 51/12/3
f 2/13/4 31/14/4 45/15/4 16/16/4
f 10/17/5 3/18/5 15/19/5 22/20/5
f 1/21/6 4/22/7 5/23/8 7/24/9
f 2/13/4 6/25/10 5/23/11 4/26/7
f 3/18/5 7/24/9 5/23/12 6/25/10
f 8/2/1 11/27/13 12/28/14 14/29/15
f 9/30/6 13/31/9 12/28/16 11/32/13
f 10/17/5 14/29/15 12/28/17 13/31/9
f 15/19/5 18/33/10 19/34/18 21/35/19
f 16/16/4 20/36/20 19/34/21 18/33/10
f 17/10/3 21/35/19 19/34/22 20/37/20
f 22/20/5 25/38/19 26/39/23 28/40/15
f 23/9/3 27/41/24 26/39/25 25/38/19
f 24/3/1 28/40/15 26/39/26 27/42/24
f 29/43/6 32/44/27 33/45/28 35/46/7
f 30/7/2 34/47/29 33/48/30 32/44/27
f 31/14/4 35/49/7 33/50/31 34/51/29
f 36/8/2 39/52/27 40/53/32 42/54/33
f 37/55/6 41/56/13 40/57/34 39/52/27
f 38/1/1 42/58/33 40/59/35 41/60/13
f 43/6/2 46/61/36 47/62/37 49/63/29
f 44/11/3 48/64/20 47/65/38 46/66/36
f 45/15/4 49/67/29 47/68/39 48/69/20
f 50/4/1 53/70/24 54/71/40 56/72/33
f 51/12/3 55/73/36 54/74/41 53/75/24
f 52/5/2 56/76/33 54/77/42 55/78/36
f 38/1/1 50/4/43 56/72/33 42/58/44
f 42/54/33 56/76/45 52/5/2 36/8/46
f 8/2/1 38/1/47 41/60/13 11/27/48
f 11/32/13 41/56/49 37/55/6 9/30/50
f 3/18/5 10/17/51 13/31/9 7/24/52
f 7/24/9 13/31/53 9/30/6 1/21/54
f 51/12/3 44/11/55 46/66/36 55/73/56
f 55/78/36 46/61/57 43/6/2 52/5/58
f 17/10/3 23/9/59 25/38/19 21/35/60
f 21/35/19 25/38/61 22/20/5 15/19/62
f 29/43/6 37/55/63 39/52/27 32/44/64
f 32/44/27 39/52/65 36/8/2 30/7/66
f 16/16/4 45/15/67 48/69/20 20/36/68
f 20/37/20 48/64/69 44/11/3 17/10/70
f 2/13/4 16/16/71 18/33/10 6/25/72
f 6/25/10 18/33/73 15/19/5 3/18/74
f 50/4/1 24/3/75 27/42/24 53/70/76
f 53/75/24 27/41/77 23/9/3 51/12/78
f 45/15/4 31/14/79 34/51/29 49/67/80
f 49/63/29 34/47/81 30/7/2 43/6/82
f 31/14/4 2/13/83 4/26/7 35/49/84
f 35/46/7 4/22/85 1/21/6 29/43/86
f 24/3/1 8/2/87 14/29/15 28/40/88
f 28/40/15 14/29/89 10/17/5 22/20/90
f 37/55/6 29/43/6 1/21/6 9/30/6
