# Blender v3.2.2 OBJ File: 'slab.blend'
# www.blender.org
mtllib slab.mtl
o Cube_Cube.001
v -0.970000 -1.000000 0.970000
v -0.970000 -0.985000 1.000000
v -1.000000 -0.985000 0.970000
v -0.970000 -0.995607 0.991213
v -0.987321 -0.993660 0.987321
v -0.991213 -0.985000 0.991213
v -0.991213 -0.995607 0.970000
v -0.970000 -0.015000 1.000000
v -0.970000 0.000000 0.970000
v -1.000000 -0.015000 0.970000
v -0.970000 -0.004393 0.991213
v -0.987321 -0.006340 0.987321
v -0.991213 -0.004393 0.970000
v -0.991213 -0.015000 0.991213
v -0.970000 -1.000000 -0.970000
v -1.000000 -0.985000 -0.970000
v -0.970000 -0.985000 -1.000000
v -0.991213 -0.995607 -0.970000
v -0.987321 -0.993660 -0.987321
v -0.991213 -0.985000 -0.991213
v -0.970000 -0.995607 -0.991213
v -0.970000 0.000000 -0.970000
v -0.970000 -0.015000 -1.000000
v -1.000000 -0.015000 -0.970000
v -0.970000 -0.004393 -0.991213
v -0.987321 -0.006340 -0.987321
v -0.991213 -0.015000 -0.991213
v -0.991213 -0.004393 -0.970000
v 0.970000 -1.000000 0.970000
v 1.000000 -0.985000 0.970000
v 0.970000 -0.985000 1.000000
v 0.991213 -0.995607 0.970000
v 0.987321 -0.993660 0.987321
v 0.991213 -0.985000 0.991213
v 0.970000 -0.995607 0.991213
v 0.970000 0.000000 0.970000
v 0.970000 -0.015000 1.000000
v 1.000000 -0.015000 0.970000
v 0.970000 -0.004393 0.991213
v 0.987321 -0.006340 0.987321
v 0.991213 -0.015000 0.991213
v 0.991213 -0.004393 0.970000
v 0.970000 -1.000000 -0.970000
v 0.970000 -0.985000 -1.000000
v 1.000000 -0.985000 -0.970000
v 0.970000 -0.995607 -0.991213
v 0.987321 -0.993660 -0.987321
v 0.991213 -0.985000 -0.991213
v 0.991213 -0.995607 -0.970000
v 0.970000 0.000000 -0.970000
v 1.000000 -0.015000 -0.970000
v 0.970000 -0.015000 -1.000000
v 0.991213 -0.004393 -0.970000
v 0.987321 -0.006340 -0.987321
v 0.991213 -0.015000 -0.991213
v 0.970000 -0.004393 -0.991213
vt 0.378750 0.753750
vt 0.621250 0.753750
vt 0.621250 0.996250
vt 0.378750 0.996250
vt 0.378750 0.503750
vt 0.621250 0.503750
vt 0.621250 0.746250
vt 0.378750 0.746250
vt 0.628750 0.503750
vt 0.871250 0.503750
vt 0.871250 0.746250
vt 0.628750 0.746250
vt 0.378750 0.003750
vt 0.621250 0.003750
vt 0.621250 0.246250
vt 0.378750 0.246250
vt 0.378750 0.253750
vt 0.621250 0.253750
vt 0.621250 0.496250
vt 0.378750 0.496250
vt 0.128750 0.746250
vt 0.128750 0.750000
vt 0.126585 0.750000
vt 0.125000 0.746250
vt 0.378750 1.000000
vt 0.376585 1.000000
vt 0.375000 0.996250
vt 0.375000 0.003750
vt 0.375000 0.001585
vt 0.378750 0.000000
vt 0.625000 0.996250
vt 0.625000 0.998415
vt 0.621250 1.000000
vt 0.875000 0.746250
vt 0.875000 0.748415
vt 0.871250 0.750000
vt 0.621250 0.000000
vt 0.623415 0.000000
vt 0.625000 0.003750
vt 0.128750 0.503750
vt 0.125000 0.503750
vt 0.125000 0.501585
vt 0.128750 0.500000
vt 0.378750 0.250000
vt 0.376585 0.250000
vt 0.375000 0.246250
vt 0.375000 0.253750
vt 0.375000 0.251585
vt 0.871250 0.500000
vt 0.873415 0.500000
vt 0.875000 0.503750
vt 0.621250 0.250000
vt 0.623415 0.250000
vt 0.625000 0.253750
vt 0.625000 0.246250
vt 0.625000 0.248415
vt 0.371250 0.746250
vt 0.375000 0.746250
vt 0.375528 0.750000
vt 0.371250 0.750000
vt 0.378750 0.750000
vt 0.375000 0.753750
vt 0.628750 0.750000
vt 0.625000 0.749472
vt 0.625000 0.746250
vt 0.621250 0.750000
vt 0.625000 0.753750
vt 0.371250 0.503750
vt 0.371250 0.500000
vt 0.375000 0.500528
vt 0.375000 0.503750
vt 0.378750 0.500000
vt 0.375000 0.496250
vt 0.625000 0.503750
vt 0.624472 0.500000
vt 0.628750 0.500000
vt 0.621250 0.500000
vt 0.625000 0.496250
vn 0.1735 -0.3114 0.9343
vn 0.1735 0.3114 0.9343
vn -0.1735 0.3114 0.9343
vn -0.1735 -0.3114 0.9343
vn 0.9343 -0.3114 -0.1735
vn 0.9343 0.3114 -0.1735
vn 0.9343 0.3114 0.1735
vn 0.9343 -0.3114 0.1735
vn 0.0953 0.9909 -0.0953
vn -0.0953 0.9909 -0.0953
vn -0.0953 0.9909 0.0953
vn 0.0953 0.9909 0.0953
vn -0.9343 -0.3114 0.1735
vn -0.9343 0.3114 0.1735
vn -0.9343 0.3114 -0.1735
vn -0.9343 -0.3114 -0.1735
vn -0.1735 -0.3114 -0.9343
vn -0.1735 0.3114 -0.9343
vn 0.1735 0.3114 -0.9343
vn 0.1735 -0.3114 -0.9343
vn -0.0953 -0.9909 0.0953
vn -0.1233 -0.8389 0.5301
vn -0.4503 -0.7710 0.4503
vn -0.5301 -0.8389 0.1233
vn -0.6749 -0.2985 0.6749
vn -0.1233 0.8389 0.5301
vn -0.4503 0.7710 0.4503
vn -0.6749 0.2985 0.6749
vn -0.5301 0.8389 0.1233
vn -0.0953 -0.9909 -0.0953
vn -0.5301 -0.8389 -0.1233
vn -0.4503 -0.7710 -0.4503
vn -0.1233 -0.8389 -0.5301
vn -0.6749 -0.2985 -0.6749
vn -0.1233 0.8389 -0.5301
vn -0.4503 0.7710 -0.4503
vn -0.5301 0.8389 -0.1233
vn -0.6749 0.2985 -0.6749
vn 0.0953 -0.9909 0.0953
vn 0.5301 -0.8389 0.1233
vn 0.4503 -0.7710 0.4503
vn 0.1233 -0.8389 0.5301
vn 0.6749 -0.2985 0.6749
vn 0.1233 0.8389 0.5301
vn 0.4503 0.7710 0.4503
vn 0.5301 0.8389 0.1233
vn 0.6749 0.2985 0.6749
vn 0.0953 -0.9909 -0.0953
vn 0.1233 -0.8389 -0.5301
vn 0.4503 -0.7710 -0.4503
vn 0.5301 -0.8389 -0.1233
vn 0.6749 -0.2985 -0.6749
vn 0.5301 0.8389 -0.1233
vn 0.4503 0.7710 -0.4503
vn 0.1233 0.8389 -0.5301
vn 0.6749 0.2985 -0.6749
usemtl None
s 1
f 31/1/1 37/2/2 8/3/3 2/4/4
f 45/5/5 51/6/6 38/7/7 30/8/8
f 50/9/9 22/10/10 9/11/11 36/12/12
f 3/13/13 10/14/14 24/15/15 16/16/16
f 17/17/17 23/18/18 52/19/19 44/20/20
f 1/21/21 4/22/22 5/23/23 7/24/24
f 2/4/4 6/25/25 5/26/23 4/27/22
f 3/13/13 7/28/24 5/29/23 6/30/25
f 8/3/3 11/31/26 12/32/27 14/33/28
f 9/11/11 13/34/29 12/35/27 11/36/26
f 10/14/14 14/37/28 12/38/27 13/39/29
f 15/40/30 18/41/31 19/42/32 21/43/33
f 16/16/16 20/44/34 19/45/32 18/46/31
f 17/17/17 21/47/33 19/48/32 20/44/34
f 22/10/10 25/49/35 26/50/36 28/51/37
f 23/18/18 27/52/38 26/53/36 25/54/35
f 24/15/15 28/55/37 26/56/36 27/52/38
f 29/57/39 32/58/40 33/59/41 35/60/42
f 30/8/8 34/61/43 33/59/41 32/58/40
f 31/1/1 35/62/42 33/59/41 34/61/43
f 36/12/12 39/63/44 40/64/45 42/65/46
f 37/2/2 41/66/47 40/64/45 39/67/44
f 38/7/7 42/65/46 40/64/45 41/66/47
f 43/68/48 46/69/49 47/70/50 49/71/51
f 44/20/20 48/72/52 47/70/50 46/73/49
f 45/5/5 49/71/51 47/70/50 48/72/52
f 50/9/9 53/74/53 54/75/54 56/76/55
f 51/6/6 55/77/56 54/75/54 53/74/53
f 52/19/19 56/78/55 54/75/54 55/77/56
f 15/40/30 1/21/21 7/24/24 18/41/31
f 18/46/31 7/28/24 3/13/13 16/16/16
f 2/4/4 8/3/3 14/33/28 6/25/25
f 6/30/25 14/37/28 10/14/14 3/13/13
f 9/11/11 22/10/10 28/51/37 13/34/29
f 13/39/29 28/55/37 24/15/15 10/14/14
f 23/18/18 17/17/17 20/44/34 27/52/38
f 27/52/38 20/44/34 16/16/16 24/15/15
f 43/68/48 15/40/30 21/43/33 46/69/49
f 46/73/49 21/47/33 17/17/17 44/20/20
f 22/10/10 50/9/9 56/76/55 25/49/35
f 25/54/35 56/78/55 52/19/19 23/18/18
f 51/6/6 45/5/5 48/72/52 55/77/56
f 55/77/56 48/72/52 44/20/20 52/19/19
f 29/57/39 43/68/48 49/71/51 32/58/40
f 32/58/40 49/71/51 45/5/5 30/8/8
f 50/9/9 36/12/12 42/65/46 53/74/53
f 53/74/53 42/65/46 38/7/7 51/6/6
f 37/2/2 31/1/1 34/61/43 41/66/47
f 41/66/47 34/61/43 30/8/8 38/7/7
f 1/21/21 29/57/39 35/60/42 4/22/22
f 4/27/22 35/62/42 31/1/1 2/4/4
f 36/12/12 9/11/11 11/36/26 39/63/44
f 39/67/44 11/31/26 8/3/3 37/2/2
f 15/40/30 43/68/48 29/57/39 1/21/21
