# Blender v3.2.2 OBJ File: 'cube.blend'
# www.blender.org
mtllib wedge.mtl
o Cube
v -0.970000 -1.000000 0.970000
v -0.970000 -0.970000 1.000000
v -1.000000 -0.970000 0.970000
v -0.970000 -0.991213 0.991213
v -0.987321 -0.987321 0.987321
v -0.991213 -0.970000 0.991213
v -0.991213 -0.991213 0.970000
v -0.970000 0.927574 1.000000
v -0.978787 0.978787 0.970000
v -1.000000 0.970000 0.970000
v -0.970000 0.957574 0.991213
v -0.990203 0.976348 0.989184
v -0.993787 0.985000 0.970000
v -0.991213 0.948787 0.991213
v -0.970000 -1.000000 -0.970000
v -1.000000 -0.970000 -0.970000
v -0.970000 -0.970000 -1.000000
v -0.991213 -0.991213 -0.970000
v -0.987321 -0.987321 -0.987321
v -0.991213 -0.970000 -0.991213
v -0.970000 -0.991213 -0.991213
v -0.978787 0.978787 -0.970000
v -0.970000 0.927574 -1.000000
v -1.000000 0.970000 -0.970000
v -0.970000 0.957574 -0.991213
v -0.990203 0.976348 -0.989184
v -0.991213 0.948787 -0.991213
v -0.993787 0.985000 -0.970000
v 0.978787 -0.978787 0.970000
v 0.927574 -0.970000 1.000000
v 0.970000 -1.000000 0.970000
v 0.957574 -0.970000 0.991213
v 0.976348 -0.990203 0.989184
v 0.948787 -0.991213 0.991213
v 0.985000 -0.993787 0.970000
v 0.927574 -0.970000 -1.000000
v 0.978787 -0.978787 -0.970000
v 0.970000 -1.000000 -0.970000
v 0.957574 -0.970000 -0.991213
v 0.976348 -0.990203 -0.989184
v 0.985000 -0.993787 -0.970000
v 0.948787 -0.991213 -0.991213
vt 0.610643 0.027160
vt 0.136250 0.738750
vt 0.373447 0.738750
vt 0.378750 0.003750
vt 0.621250 0.003750
vt 0.621250 0.246250
vt 0.378750 0.246250
vt 0.622348 0.249988
vt 0.622348 0.010618
vt 0.377652 0.739382
vt 0.377652 0.500012
vt 0.136250 0.496250
vt 0.610643 0.259053
vt 0.373447 0.496250
vt 0.128750 0.746250
vt 0.128750 0.750000
vt 0.126585 0.750000
vt 0.125000 0.746250
vt 0.132500 0.738750
vt 0.128170 0.745245
vt 0.375000 0.003750
vt 0.375000 0.001585
vt 0.378750 0.000000
vt 0.620473 0.013580
vt 0.623318 0.002541
vt 0.612197 0.019205
vt 0.625000 0.003750
vt 0.618598 0.000000
vt 0.128750 0.503750
vt 0.125000 0.503750
vt 0.125000 0.501585
vt 0.128750 0.500000
vt 0.378750 0.250000
vt 0.376585 0.250000
vt 0.375000 0.246250
vt 0.126585 0.500000
vt 0.132500 0.496250
vt 0.620473 0.254527
vt 0.622332 0.251232
vt 0.625000 0.246250
vt 0.612197 0.256402
vt 0.618598 0.250000
vt 0.379527 0.736420
vt 0.374711 0.747459
vt 0.375000 0.746250
vt 0.368598 0.750000
vt 0.371250 0.746250
vt 0.379527 0.495473
vt 0.374711 0.499754
vt 0.368598 0.500000
vt 0.375000 0.503750
vt 0.371250 0.503750
vn -0.0542 0.1307 0.9899
vn -0.1794 -0.1794 0.9673
vn 0.1307 -0.0542 0.9899
vn -0.9673 -0.1794 0.1794
vn -0.9663 0.1639 0.1983
vn -0.9663 0.1639 -0.1983
vn -0.9673 -0.1794 -0.1794
vn 0.5674 0.7992 -0.1983
vn 0.5674 0.7992 0.1983
vn 0.7992 0.5674 0.1983
vn 0.7992 0.5674 -0.1983
vn -0.1794 -0.1794 -0.9673
vn -0.0542 0.1307 -0.9899
vn 0.1307 -0.0542 -0.9899
vn -0.1794 -0.9673 0.1794
vn -0.1726 -0.6965 0.6965
vn -0.5774 -0.5774 0.5774
vn -0.6965 -0.6965 0.1726
vn -0.6965 -0.1726 0.6965
vn 0.3621 0.5089 0.7810
vn -0.2557 0.6172 0.7441
vn -0.6159 0.1038 0.7810
vn -0.3675 0.8873 0.2785
vn -0.1794 -0.9673 -0.1794
vn -0.6965 -0.6965 -0.1726
vn -0.5774 -0.5774 -0.5774
vn -0.1726 -0.6965 -0.6965
vn -0.6965 -0.1726 -0.6965
vn 0.3621 0.5089 -0.7810
vn -0.2557 0.6172 -0.7441
vn -0.3675 0.8873 -0.2785
vn -0.6159 0.1038 -0.7810
vn 0.5089 0.3621 0.7810
vn 0.6172 -0.2557 0.7441
vn 0.8873 -0.3675 0.2785
vn 0.1038 -0.6159 0.7810
vn 0.1639 -0.9663 0.1983
vn 0.5089 0.3621 -0.7810
vn 0.6172 -0.2557 -0.7441
vn 0.1038 -0.6159 -0.7810
vn 0.8873 -0.3675 -0.2785
vn 0.1639 -0.9663 -0.1983
usemtl None
s 1
f 8/1/1 2/2/2 30/3/3
f 3/4/4 10/5/5 24/6/6 16/7/7
f 22/8/8 9/9/9 29/10/10 37/11/11
f 17/12/12 23/13/13 36/14/14
f 1/15/15 4/16/16 5/17/17 7/18/18
f 2/2/2 6/19/19 5/20/17 4/16/16
f 3/4/4 7/21/18 5/22/17 6/23/19
f 8/1/1 11/24/20 12/25/21 14/26/22
f 9/9/9 13/27/23 12/25/21 11/24/20
f 10/5/5 14/28/22 12/25/21 13/27/23
f 15/29/24 18/30/25 19/31/26 21/32/27
f 16/7/7 20/33/28 19/34/26 18/35/25
f 17/12/12 21/32/27 19/36/26 20/37/28
f 22/8/8 25/38/29 26/39/30 28/40/31
f 23/13/13 27/41/32 26/39/30 25/38/29
f 24/6/6 28/40/31 26/39/30 27/42/32
f 29/10/10 32/43/33 33/44/34 35/45/35
f 30/3/3 34/46/36 33/44/34 32/43/33
f 31/47/37 35/45/35 33/44/34 34/46/36
f 36/14/14 39/48/38 40/49/39 42/50/40
f 37/11/11 41/51/41 40/49/39 39/48/38
f 38/52/42 42/50/40 40/49/39 41/51/41
f 15/29/24 1/15/15 7/18/18 18/30/25
f 18/35/25 7/21/18 3/4/4 16/7/7
f 2/2/2 8/1/1 14/26/22 6/19/19
f 6/23/19 14/28/22 10/5/5 3/4/4
f 9/9/9 22/8/8 28/40/31 13/27/23
f 13/27/23 28/40/31 24/6/6 10/5/5
f 23/13/13 17/12/12 20/37/28 27/41/32
f 27/42/32 20/33/28 16/7/7 24/6/6
f 38/52/42 15/29/24 21/32/27 42/50/40
f 42/50/40 21/32/27 17/12/12 36/14/14
f 31/47/37 38/52/42 41/51/41 35/45/35
f 35/45/35 41/51/41 37/11/11 29/10/10
f 1/15/15 31/47/37 34/46/36 4/16/16
f 4/16/16 34/46/36 30/3/3 2/2/2
f 8/1/1 30/3/3 32/43/33 11/24/20
f 11/24/20 32/43/33 29/10/10 9/9/9
f 22/8/8 37/11/11 39/48/38 25/38/29
f 25/38/29 39/48/38 36/14/14 23/13/13
f 15/29/24 38/52/42 31/47/37 1/15/15
